<svg width="900" height="502" viewBox="0 0 900 502" fill="none" xmlns="http://www.w3.org/2000/svg">
<path d="M628.416 3.72019C624.811 13.4547 635.627 27.1551 674.204 62.1272C707.013 91.6912 753.162 145.411 753.522 154.064C753.522 155.867 745.59 149.017 736.216 139.282C726.842 129.548 712.421 117.289 704.489 112.242C674.565 93.4939 638.15 87.0042 638.15 100.705C638.15 108.636 656.898 120.174 708.095 142.887C734.053 154.425 758.209 167.043 761.815 170.288C776.236 184.71 810.487 281.694 811.208 309.455C811.208 314.863 791.018 282.055 782.726 262.946C772.27 239.511 757.128 221.124 734.414 205.621C713.142 190.839 691.87 185.431 683.217 192.641C674.204 200.213 682.857 209.226 733.332 242.756C771.91 268.715 783.447 278.449 793.181 293.592C811.208 321.714 814.453 334.693 814.813 379.039C814.813 420.14 810.487 433.12 806.161 404.277C802.555 381.563 788.855 354.523 773.712 341.183C766.502 335.054 758.93 329.645 756.767 329.645C750.998 329.645 748.835 340.462 752.441 348.754C757.488 359.57 789.936 398.869 792.1 396.705C793.181 395.984 787.052 386.61 778.76 376.155C759.291 351.278 751.719 336.856 758.209 336.856C763.978 336.856 787.052 359.931 784.168 362.815C783.086 363.896 784.168 368.944 786.331 374.352C789.576 380.842 791.739 382.644 793.542 379.4C794.984 377.236 795.705 381.202 795.344 388.413C794.623 397.066 797.508 407.882 803.276 419.78L812.29 438.167L803.997 468.813C799.671 485.758 796.787 500.179 797.868 501.261C798.95 502.343 803.997 489.724 809.405 473.139C823.466 430.956 826.711 425.548 855.915 396.705C906.75 346.591 917.566 295.034 867.452 340.822C842.575 363.175 835.004 375.794 827.793 405.358C824.548 418.338 820.582 429.875 819.14 431.317C816.616 433.841 817.337 318.829 820.221 305.85C821.303 301.884 830.677 286.381 841.493 271.96C852.309 257.538 862.765 239.511 864.928 232.301C869.976 215.355 869.976 197.328 864.928 194.444C854.112 187.594 831.759 230.498 822.745 275.926C819.861 291.789 816.616 303.687 815.895 302.966C813.371 300.803 800.392 221.124 800.392 209.226C800.392 185.431 807.963 169.928 831.038 145.772C854.112 121.616 861.683 110.8 861.683 101.065C861.683 92.0517 845.459 94.2149 832.84 104.671C818.419 116.929 811.569 130.629 803.637 161.996L797.147 187.233L798.229 143.969C799.31 103.589 800.031 98.9019 811.208 76.1881C828.874 39.0528 830.677 1.55697 814.813 1.55697C805.439 1.55697 798.229 13.4547 791.018 41.216C785.97 60.685 785.61 67.8957 789.215 84.841C793.902 108.636 794.623 137.84 789.936 133.153C788.134 130.99 784.168 121.255 780.923 110.8C774.433 91.6912 754.964 69.6984 739.101 64.6509C717.829 57.8007 726.842 79.0724 760.372 114.766C791.739 147.574 790.657 145.051 794.984 203.458L796.787 230.498L785.97 203.458C779.841 188.676 763.617 160.193 749.917 140.364C736.216 120.534 718.19 91.3306 709.897 75.8276C693.313 43.7398 661.225 8.7677 642.477 2.27804C632.742 -0.966791 630.219 -0.966791 628.416 3.72019ZM648.966 10.9309C671.68 26.434 711.339 73.6643 705.571 79.4329C704.85 80.5145 695.476 71.5011 685.02 59.6034C674.565 47.3451 664.109 37.6107 662.306 37.6107C660.143 37.6107 661.585 41.216 665.551 45.5425C669.157 50.2294 665.191 47.3451 656.538 39.4133C629.858 14.5363 624.45 -5.29323 648.966 10.9309ZM819.14 35.808C816.977 46.9846 811.208 64.2904 806.521 74.7459L797.868 93.4939L794.984 76.5486C792.1 57.8007 797.868 26.7945 806.521 12.7336C811.569 5.16233 812.29 4.8018 817.698 10.2099C822.745 15.2574 823.106 18.5022 819.14 35.808ZM749.196 75.8276C757.849 81.9567 778.76 108.636 778.76 113.684C778.76 124.139 749.917 101.426 738.019 80.8751C730.448 68.2563 735.495 66.0931 749.196 75.8276ZM685.02 108.276C707.013 118.371 729.727 134.595 726.842 137.84C725.761 138.922 727.564 141.806 731.169 144.33C739.461 150.819 705.21 136.758 673.122 120.895C659.062 113.684 646.803 105.752 646.082 103.228C643.919 95.6571 663.749 98.1808 685.02 108.276ZM855.554 106.473C854.112 110.8 843.656 124.139 832.119 136.398C820.221 148.295 812.65 154.785 814.813 150.098C816.977 145.772 817.698 140.003 816.256 137.84C814.813 135.677 815.174 134.956 817.337 136.037C819.5 137.479 824.187 133.874 827.432 128.466L833.922 118.731L825.63 125.942L816.977 133.153L825.269 121.616C839.33 101.065 859.52 91.3306 855.554 106.473ZM718.55 202.015C737.659 211.75 754.604 226.892 767.944 245.28C774.794 255.014 777.678 260.783 774.794 258.62C771.549 256.096 768.304 255.014 766.862 256.096C764.338 258.62 687.544 205.981 685.741 200.213C683.578 194.084 705.21 195.165 718.55 202.015ZM863.846 214.634C860.962 231.579 847.983 258.259 835.004 273.762L825.63 284.578L829.235 274.483C831.398 268.715 831.759 262.586 830.677 260.422C829.235 258.259 829.956 257.538 831.759 258.62C833.922 260.062 836.806 258.62 837.888 255.375C838.969 252.491 838.609 251.048 836.446 252.13C834.282 253.212 832.84 253.572 832.84 252.491C832.84 248.885 851.228 209.226 854.833 204.539C862.765 195.526 866.37 199.492 863.846 214.634ZM885.479 350.196C875.384 370.386 842.935 408.243 840.772 402.113C840.051 399.95 837.888 399.229 835.725 400.311C830.677 403.556 835.364 388.413 844.017 374.352C853.391 359.21 891.608 323.516 893.05 328.564C893.771 330.727 890.526 340.462 885.479 350.196Z" fill="black"/>
<path d="M688.625 119.452C688.986 122.697 721.434 139.643 723.237 137.479C723.958 136.758 716.747 131.711 706.652 126.303C696.918 120.895 688.625 117.65 688.625 119.452Z" fill="black"/>
<path d="M721.074 212.111C721.074 214.634 744.148 235.906 759.651 247.443L769.746 255.375L762.536 247.083C753.522 236.627 721.074 209.226 721.074 212.111Z" fill="black"/>
<path d="M14.4215 169.928C3.24483 173.893 0 183.267 0 213.553C0 255.014 5.40805 264.749 29.564 264.749C39.6591 264.749 44.7066 262.586 50.1146 255.375C59.8491 243.117 59.8491 232.3 50.1146 220.042C44.346 212.831 43.2644 209.226 46.5093 205.981C50.8357 201.655 51.9173 185.791 47.5909 179.302C45.0671 175.336 27.4008 167.043 22.3533 167.764C20.9111 167.764 17.3058 168.846 14.4215 169.928ZM39.2985 179.662C41.8223 182.546 43.2644 189.397 42.5433 195.165C41.4617 204.179 40.0196 205.621 24.5165 207.063L7.21074 209.226V196.247C7.21074 189.036 9.01342 181.465 11.5372 178.941C17.6663 172.812 34.251 173.533 39.2985 179.662ZM44.7066 222.205C52.6384 233.382 51.9173 245.28 43.2644 253.933C26.6797 270.517 7.21074 258.62 7.21074 231.579V214.274H23.0744C35.6931 214.274 40.3801 216.076 44.7066 222.205Z" fill="black"/>
<path d="M173.419 174.254C162.602 185.07 145.657 264.749 154.671 264.749C156.834 264.749 158.637 258.62 158.637 250.327V235.906H180.269H201.901L204.064 250.327C206.227 264.028 212.717 270.878 212.717 259.701C212.717 248.164 202.261 200.573 196.493 186.512C189.282 168.846 182.432 165.241 173.419 174.254ZM192.166 191.56C195.411 201.294 199.017 214.274 200.098 220.403L202.622 232.301H182.432C160.079 232.301 160.079 231.94 166.208 208.866C176.303 169.928 183.874 164.88 192.166 191.56Z" fill="black"/>
<path d="M263.913 173.172C256.342 178.22 255.981 181.104 255.981 221.845C255.981 279.17 262.832 278.449 263.913 220.403L264.995 176.417L274.729 175.336C281.58 174.615 287.709 177.138 293.838 183.267C302.13 191.56 302.851 194.805 302.851 228.695C302.851 250.327 304.293 264.749 306.457 264.749C308.62 264.749 310.062 250.688 310.062 229.416C310.062 189.757 306.457 180.744 286.267 172.451C271.485 166.322 273.648 166.322 263.913 173.172Z" fill="black"/>
<path d="M378.564 172.091C364.142 179.302 356.21 198.41 358.013 222.566C359.455 247.082 368.829 262.225 383.972 264.028C398.393 265.83 411.012 261.864 411.012 255.735C411.012 251.048 409.93 251.048 401.999 256.096C380.366 270.157 361.979 248.164 364.863 212.11C367.026 188.315 375.319 174.615 388.298 174.615C393.706 174.615 400.917 177.138 404.522 180.744C410.291 185.791 411.012 186.152 411.012 180.744C411.012 177.499 409.93 174.254 408.488 173.533C400.196 168.846 386.495 168.125 378.564 172.091Z" fill="black"/>
<path d="M473.385 170.288C466.534 174.975 461.126 189.036 454.276 220.763C446.344 256.457 445.623 264.749 450.671 264.749C452.834 264.749 454.276 260.422 454.276 254.654C454.276 238.43 458.603 235.545 479.874 236.627L499.343 237.709L500.425 251.049C501.507 264.749 508.357 270.518 508.357 258.259C508.357 246.722 501.146 209.587 495.377 191.56C489.609 174.615 480.595 165.601 473.385 170.288ZM487.806 187.955C490.69 195.526 494.296 208.505 495.738 216.798L498.262 232.301H478.072C457.882 232.301 457.882 232.301 460.045 222.206C470.861 172.812 478.072 163.799 487.806 187.955Z" fill="black"/>
<path d="M100.95 217.879C100.95 246.722 102.392 264.749 104.556 264.749C106.719 264.749 108.161 246.722 108.161 217.879C108.161 189.036 106.719 171.009 104.556 171.009C102.392 171.009 100.95 189.036 100.95 217.879Z" fill="black"/>
<path d="M5.76859 323.156C1.44215 329.285 0 340.822 0 371.828C0 427.712 6.8502 424.827 7.93181 368.223L9.01342 324.237L18.7479 323.156C34.9721 321.353 41.4617 335.775 42.1828 376.515C42.5434 395.263 43.9855 410.045 45.4276 408.964C46.5093 407.882 47.9514 392.379 48.3119 374.352C49.033 335.414 55.5227 321.353 71.3863 323.156L81.1208 324.237L82.2024 368.223C83.284 425.188 90.1342 427.712 90.1342 371.468C90.1342 337.217 89.0526 329.285 83.6446 322.435C75.3522 311.979 60.5702 314.864 51.9173 327.843L46.1487 336.856L36.0537 326.04C24.156 313.061 13.3399 312.34 5.76859 323.156Z" fill="black"/>
<path d="M147.82 321.714C139.528 328.203 138.806 332.169 137.725 361.012C136.643 389.134 137.364 393.821 144.215 402.834C149.983 410.045 155.031 412.569 164.405 412.569C178.826 412.569 192.166 406.8 189.282 401.753C187.839 399.59 183.153 400.671 178.466 403.916C168.01 410.766 153.228 408.243 148.541 398.869C146.738 395.624 144.215 386.61 143.133 379.039L140.97 365.699H158.997C168.731 365.699 176.663 363.896 176.663 362.094C176.663 359.931 168.731 358.488 158.636 358.488H140.97L143.133 346.591C146.738 326.401 150.344 322.435 165.126 322.435C172.697 322.435 180.629 324.237 183.153 326.761C188.2 331.809 191.805 329.285 187.839 322.795C186.037 320.272 178.466 317.387 170.894 316.306C160.078 314.863 154.67 316.306 147.82 321.714Z" fill="black"/>
<path d="M236.873 321.714C231.825 327.122 230.743 336.135 230.743 366.06C230.743 390.576 232.186 405.358 235.07 408.243C242.641 415.814 262.831 413.29 272.205 403.916C293.837 381.923 290.593 332.89 266.437 320.632C252.736 313.421 244.083 313.782 236.873 321.714ZM270.042 331.809C274.008 336.856 278.695 346.951 279.776 354.162C284.824 380.481 263.913 412.93 245.525 407.161C238.315 404.998 237.954 402.474 237.954 366.06C237.954 344.788 239.036 326.04 240.478 324.959C246.246 318.829 262.831 322.795 270.042 331.809Z" fill="black"/>
<path d="M343.952 323.516C336.02 330.367 333.857 335.775 332.415 352.359C329.17 392.379 338.904 412.569 361.618 412.569C373.877 412.569 389.38 404.277 385.053 399.95C383.972 398.508 378.924 400.311 373.877 403.556C356.21 415.093 338.904 401.753 338.904 376.515C338.904 366.06 339.265 365.699 356.931 365.699C367.026 365.699 374.958 363.896 374.958 362.094C374.958 359.931 367.026 358.488 356.931 358.488C339.626 358.488 338.904 358.128 338.904 348.393C338.904 332.89 348.278 322.435 361.979 322.435C368.108 322.435 375.319 324.237 377.842 326.761C380.006 328.924 383.25 329.645 384.693 328.203C389.019 323.877 374.958 315.224 363.782 315.224C358.373 315.224 349.36 318.829 343.952 323.516Z" fill="black"/>
<path d="M487.085 322.074C480.235 328.924 479.514 333.611 479.514 371.107C479.514 396.345 480.956 412.569 483.119 412.569C485.282 412.569 486.724 404.637 486.724 394.903C486.724 377.957 487.085 377.236 497.901 375.794C508.357 374.352 509.799 375.434 515.928 388.774C519.533 397.066 522.778 405.719 522.778 407.882C522.778 414.011 529.989 414.011 529.989 407.882C529.989 404.998 526.383 395.984 522.057 386.971L513.765 371.107L522.057 363.175C537.921 347.312 528.907 320.993 506.193 316.666C497.541 314.863 492.854 316.306 487.085 322.074ZM520.615 333.611C525.302 347.672 520.615 361.373 508.357 367.502C489.609 377.236 486.724 375.073 486.724 353.441C486.724 325.319 488.888 321.714 504.391 323.156C514.486 323.877 518.091 326.04 520.615 333.611Z" fill="black"/>
<path d="M585.872 323.877C575.777 333.972 571.811 352.359 574.335 375.434C579.382 422.303 625.892 425.188 632.742 379.039C639.953 331.448 611.47 298.279 585.872 323.877ZM618.32 329.645C632.381 345.149 628.415 397.066 612.552 405.719C588.396 418.337 570.73 371.107 585.512 335.053C589.838 324.598 592.722 322.435 601.375 322.435C607.144 322.435 614.715 325.68 618.32 329.645Z" fill="black"/>
<path d="M689.346 320.993C681.414 326.401 678.891 338.659 684.299 346.23C685.741 348.393 694.394 354.883 703.407 361.373C727.203 377.597 731.89 393.461 715.665 403.916C707.013 409.324 705.21 409.324 692.231 404.277C677.449 398.508 672.04 402.113 684.659 408.964C697.278 415.453 715.665 413.29 723.958 404.277C738.379 388.774 732.611 373.992 704.489 354.523C691.149 345.509 688.265 341.543 689.346 333.972C690.067 326.04 692.591 323.877 701.965 323.156C708.455 322.435 716.747 323.877 721.073 326.04C726.121 328.564 728.284 328.564 728.284 326.04C728.284 321.714 713.142 315.224 703.768 315.224C700.162 315.224 693.673 317.748 689.346 320.993Z" fill="black"/>
<path d="M425.433 365.699C425.433 394.542 426.875 412.569 429.039 412.569C431.202 412.569 432.644 394.542 432.644 365.699C432.644 336.856 431.202 318.829 429.039 318.829C426.875 318.829 425.433 336.856 425.433 365.699Z" fill="black"/>
</svg>
